<?xml version="1.0" encoding="UTF-8" standalone="no"?>
<!DOCTYPE svg PUBLIC "-//W3C//DTD SVG 1.1//EN" "http://www.w3.org/Graphics/SVG/1.1/DTD/svg11.dtd">
<svg width="100%" height="100%" viewBox="0 0 2626 2550" version="1.1" xmlns="http://www.w3.org/2000/svg" xmlns:xlink="http://www.w3.org/1999/xlink" xml:space="preserve" xmlns:serif="http://www.serif.com/" style="fill-rule:evenodd;clip-rule:evenodd;stroke-linejoin:round;stroke-miterlimit:2;">
    <g transform="matrix(1,0,0,1,-2738,-2292.4)">
        <g id="Main-logo" serif:id="Main logo" transform="matrix(1,0,0,1,2738,2292.4)">
            <rect x="0" y="0" width="2625.1" height="2550" style="fill:none;"/>
            <g transform="matrix(1.4551,0,0,1.4551,-77.8327,-313.504)">
                <path d="M579.844,726.157C579.844,726.157 619.223,713.048 623.093,722.114C623.093,722.114 794.205,492.262 1034.16,591.922L1196.04,467.172L1287.41,485.287L1410.95,485.287L1561.58,616.923L1613.67,819.543L1579.98,1038.24L1613.67,1061.5L1627.15,1131.39L1613.67,1184.89L1597.42,1195.16L1561.58,1375.96L1561.58,1418.72L1528.1,1440.49C1528.1,1440.49 1448.07,1410.2 1272.27,1540.05C1272.27,1540.05 1226.22,1548.52 1224.99,1523.87L1196.04,1465.9C1196.04,1465.9 982.837,1665.29 946.7,1707.12C946.7,1707.12 922.462,1727.52 894.186,1707.12L821.459,1660.36C821.459,1660.36 792.961,1639.64 800.432,1593.7L829.987,1484.43C829.987,1484.43 536.254,1529.26 453.999,1319.29C380.673,1132.12 457.028,1030.26 480.227,1003.31C480.227,1003.31 397.994,1014.57 367.307,1061.5C367.307,1061.5 281.533,1067.87 305.125,1003.31C305.125,1003.31 376.986,919.432 378.344,883.307C378.344,883.307 306.884,748.491 284.387,733.345C284.387,733.345 273.389,644.707 355.507,667.662C355.507,667.662 443.044,773.076 500.757,766.592L579.844,726.157Z" style="fill:white;"/>
            </g>
            <g transform="matrix(2.27927,0,0,2.27927,-2462.46,-86.3169)">
                <g transform="matrix(1,0,0,1,-2120.01,-87.0061)">
                    <path d="M3698.52,396.582C3698.52,396.582 3606.13,429.755 3580.1,492.231L3546.2,555.136L3489.48,678.543L3489.48,784.429L3559.47,855.809L3690.66,878.27L3800.24,829.576L3921.02,715.401L3994.17,589.693L3970.64,512.037L3929.8,459.501L3871.46,413.571L3755.8,396.582L3698.52,396.582Z" style="fill:rgb(218,252,218);"/>
                </g>
                <g transform="matrix(1,0,0,1,-2120.01,-87.0061)">
                    <path d="M3516.38,598.865L3489.48,564.218L3494.18,543.084L3516.38,493.265L3487.34,512.037L3430.43,502.878L3436.12,529.942L3445.09,564.218L3423.52,605.608L3456.04,598.865L3494.18,609.328L3507.92,620.382L3516.38,598.865Z" style="fill:rgb(254,191,0);"/>
                </g>
                <g transform="matrix(1,0,0,1,-2120.01,-87.0061)">
                    <path d="M3504.09,620.933C3504.92,623.835 3505.26,625.809 3505.23,627.045C3505.2,628.206 3504.82,628.818 3504.31,629.06C3503.95,629.232 3503.49,629.241 3502.95,629.057C3502.32,628.844 3501.54,628.356 3500.66,627.66C3497.21,624.937 3492.07,618.943 3488.08,615.178L3488.04,615.133C3476.57,601.28 3461.12,602.006 3446.73,607.814C3424.92,616.613 3405.48,637.056 3405.48,637.056L3405.16,637.21C3397.99,637.844 3394.24,636.216 3392.47,633.74C3390.8,631.4 3390.86,628.244 3391.58,625.295C3392.63,621.01 3395.03,617.184 3395.03,617.184L3395.21,617.011C3401.94,613.31 3412.39,604.454 3420.75,592.701C3429.1,580.969 3435.39,566.345 3433.78,551.06C3432.81,541.861 3427.43,529.227 3420.37,516.04C3403.85,485.144 3378.17,451.251 3378.17,451.251L3378.07,450.915C3378.28,447.879 3378.82,445.941 3379.52,444.796C3380.06,443.922 3380.71,443.47 3381.4,443.307C3382.54,443.04 3383.86,443.603 3385.12,444.596C3387.66,446.582 3390.02,450.224 3390.29,450.644C3410.96,473.205 3428.91,488.792 3444.27,497.658C3454.45,503.531 3463.47,506.45 3471.37,506.466C3477.93,506.479 3486.26,503.432 3493.89,499.789C3505.22,494.383 3515.02,487.641 3515.35,487.413C3520.12,483.748 3523.13,483.672 3524.97,484.76C3526.12,485.435 3526.86,486.579 3527.31,487.719C3527.97,489.365 3528.06,490.983 3528.06,490.983L3527.95,491.315C3490.35,539.904 3506.03,566.046 3506.03,566.046C3506.03,566.06 3506.04,566.074 3506.05,566.088L3520.48,596.145C3520.52,596.212 3520.53,596.286 3520.53,596.361L3520.53,602.109C3520.53,602.33 3520.39,602.525 3520.18,602.588L3513.12,604.701C3512.93,604.756 3512.73,604.699 3512.6,604.553L3495.06,584.789L3495.05,584.774C3481.62,568.416 3483.59,549.636 3488.94,534.943C3492.38,525.502 3497.21,517.756 3500.2,513.449C3492.41,519.092 3481.47,520.62 3470.71,520.251C3455.6,519.733 3440.87,515.505 3435.89,513.943C3467.88,550.4 3448.75,583.594 3443.69,591.048C3452.37,587.394 3462.09,588.122 3470.76,590.42C3484.57,594.078 3495.72,601.696 3495.72,601.696C3495.74,601.713 3495.76,601.731 3495.78,601.751L3520.38,625.731C3520.55,625.895 3520.58,626.154 3520.46,626.353C3520.33,626.553 3520.09,626.639 3519.87,626.56L3504.09,620.933Z" style="fill:rgb(8,44,83);"/>
                </g>
                <g transform="matrix(1,0,0,1,-2120.01,-87.0061)">
                    <path d="M3677.23,555.136C3677.23,555.136 3750.32,423.753 3826.11,431.694C3826.11,431.694 3866.11,458.213 3883.79,473.975L3875.98,555.136L3785.21,581.456L3700.41,567.727L3677.23,555.136Z" style="fill:rgb(223,2,83);"/>
                </g>
                <g transform="matrix(1,0,0,1,-2120.01,-87.0061)">
                    <path d="M3546.2,640.444L3591.25,577.327L3605.72,531.127L3656.97,547.852L3628.38,595.493L3546.2,640.444Z" style="fill:rgb(223,2,83);"/>
                </g>
                <g transform="matrix(1,0,0,1,-2120.01,-87.0061)">
                    <path d="M3588.3,581.456C3588.3,581.456 3600.4,517.275 3614.54,505.823C3628.68,494.371 3720.22,422.819 3741.14,423.128C3762.07,423.437 3817.98,438.388 3817.98,438.388L3741.14,521.495L3690.66,572.584L3639.62,581.456L3588.3,581.456Z" style="fill:rgb(223,2,83);"/>
                </g>
                <g transform="matrix(1,0,0,1,-2120.01,-87.0061)">
                    <path d="M3782.38,429.745L3752.33,443.738C3752.33,443.738 3750.86,444.676 3752.33,448.333L3765.95,453.352L3733.79,459.806C3733.79,459.806 3726.83,461.039 3733.79,464.242L3775.24,464.242C3775.24,464.242 3786.25,462.905 3782.38,453.352L3775.24,443.738L3800.37,434.287L3805.96,423.127L3782.38,429.745Z" style="fill:rgb(218,252,218);"/>
                </g>
                <g transform="matrix(1,0,0,1,-2120.01,-87.0061)">
                    <path d="M3970.64,492.382L4006.86,438.879L4032.68,449.795L4074.5,480.194L4074.5,510.532L4036.3,587.009L4091.49,656.793L4137.47,533.574L4152.21,472.573L4117.97,410.36L4074.5,363.102L4036.3,340.976L3951.9,340.976L3871.46,381.179L3854.01,402.52L3942.32,480.194L3970.64,492.382Z" style="fill:rgb(223,2,83);"/>
                </g>
                <g transform="matrix(1,0,0,1,-2120.01,-87.0061)">
                    <path d="M3595.08,627.851C3595.08,627.851 3546.13,840.384 3770.86,822.685L3906.27,712.514L3921.02,656.793L3894.25,555.136L3770.86,577.327L3700.9,567.727L3677.23,555.136L3639.62,577.327L3595.08,627.851Z" style="fill:rgb(239,115,21);"/>
                    <clipPath id="_clip1">
                        <path d="M3595.08,627.851C3595.08,627.851 3546.13,840.384 3770.86,822.685L3906.27,712.514L3921.02,656.793L3894.25,555.136L3770.86,577.327L3700.9,567.727L3677.23,555.136L3639.62,577.327L3595.08,627.851Z"/>
                    </clipPath>
                    <g clip-path="url(#_clip1)">
                        <g transform="matrix(1,0,0,1,24.7168,-19.9729)">
                            <path d="M3595.08,627.851C3595.08,627.851 3546.13,840.384 3770.86,822.685L3906.27,712.514L3921.02,656.793L3894.25,555.136L3770.86,577.327L3700.9,567.727L3677.23,555.136L3639.62,577.327L3595.08,627.851Z" style="fill:rgb(254,191,0);"/>
                        </g>
                    </g>
                </g>
                <g transform="matrix(1,0,0,1,-2120.01,-87.0061)">
                    <path d="M3724.35,963.731C3724.35,963.731 3741.72,888.308 3755.8,865.385L3988.13,675.018L4080.32,689.434L4121.74,704.258L4137.47,802.58L4121.74,865.385L4081.65,865.385L3978.46,934.999L3956.18,903.744L3935.87,865.385L3817.98,957.799L3737.43,1029.97L3737.43,985.844L3724.35,963.731Z" style="fill:rgb(239,115,21);"/>
                    <clipPath id="_clip2">
                        <path d="M3724.35,963.731C3724.35,963.731 3741.72,888.308 3755.8,865.385L3988.13,675.018L4080.32,689.434L4121.74,704.258L4137.47,802.58L4121.74,865.385L4081.65,865.385L3978.46,934.999L3956.18,903.744L3935.87,865.385L3817.98,957.799L3737.43,1029.97L3737.43,985.844L3724.35,963.731Z"/>
                    </clipPath>
                    <g clip-path="url(#_clip2)">
                        <path d="M3988.13,695.59L3862.01,852.496L3744.92,953.357L3703.14,953.357L3744.92,875.426L3978.46,675.018L3988.13,695.59Z" style="fill:rgb(223,2,83);"/>
                    </g>
                </g>
                <g transform="matrix(1,0,0,1,-2120.01,-87.0061)">
                    <path d="M3930.91,802.58L3944.15,865.385L3988.13,875.426L4081.65,811.788L4091.49,765.682L4043.08,704.258L3954.92,750.327L3930.91,802.58Z" style="fill:rgb(254,191,0);"/>
                </g>
                <g transform="matrix(1,0,0,1,-2120.01,-87.0061)">
                    <path d="M3954.92,802.58C3954.92,802.58 3972.88,754.201 3994.17,757.007C3994.17,757.007 3992.83,788.732 3978.46,802.58C3978.46,802.58 3953.57,823.704 3954.92,802.58Z" style="fill:rgb(218,252,218);"/>
                </g>
                <g transform="matrix(1,0,0,1,-2120.01,-87.0061)">
                    <path d="M3690.66,716.066C3690.66,716.066 3704.98,654.096 3767.33,689.434C3767.33,689.434 3794.18,728.61 3742.22,750.327C3742.22,750.327 3693.21,764.499 3690.66,716.066Z" style="fill:rgb(239,115,21);"/>
                </g>
                <g transform="matrix(1,0,0,1,-2120.01,-87.0061)">
                    <path d="M3902.68,431.348L3978.46,381.179L4045.5,381.179L4111.05,410.36L4058.46,349.409L4014.41,338.965L3951.68,349.409L3902.68,365.218L3861.59,410.36L3902.68,431.348Z" style="fill:rgb(218,252,218);"/>
                </g>
                <g transform="matrix(1,0,0,1,-2120.01,-87.0061)">
                    <path d="M3894.72,417.734L3951.68,372.812L4045.5,365.218L4104.84,397.241L4137.47,423.127L4150,483.87L4100.4,431.348L4043.08,410.36L3997.44,410.36L3929.8,455.503L3894.72,417.734Z" style="fill:rgb(239,115,21);"/>
                </g>
                <g transform="matrix(1,0,0,1,-2120.01,-87.0061)">
                    <path d="M3645.98,784.86L3737.43,733.201L3690.66,807.707L3661.25,798.555L3645.98,784.86Z" style="fill:rgb(218,252,218);"/>
                </g>
                <g transform="matrix(1,0,0,1,-2120.01,-87.0061)">
                    <path d="M3685.97,661.502L3707.4,646.652L3714.85,669.633L3685.97,661.502Z" style="fill:rgb(218,252,218);"/>
                </g>
                <g transform="matrix(1,0,0,1,376.494,-103.572)">
                    <path d="M1250.39,1005.52C1279.45,983.596 1373.31,893.448 1425.33,859.007C1440.9,848.699 1452.75,841.614 1458.01,839.98C1458.19,839.916 1459.98,839.303 1461.99,839.253C1463.46,839.217 1465.05,839.489 1466.26,840.434C1467.55,841.446 1468.46,843.235 1468.28,846.326C1468.26,846.553 1468.17,846.855 1467.95,847.218C1467.57,847.882 1466.78,848.836 1465.6,850.046C1462.64,853.102 1457.19,857.872 1449.88,863.915L1474.92,924.231L1474.87,924.703C1473.3,927.032 1471.58,928.422 1469.84,929.167C1467.05,930.368 1464.2,929.903 1461.78,928.895C1458.38,927.472 1455.86,924.974 1455.67,924.784C1455.24,924.39 1454.7,923.656 1454.1,922.636C1452.76,920.359 1451.04,916.604 1449.19,912.175C1443.4,898.354 1438.29,895.14 1437.47,892.772C1372.74,944.286 1251.29,1063.88 1251.29,1063.88C1251.09,1064.02 1231.82,1048.3 1231.64,1048.13L1218.88,1035.74C1218.76,1035.62 1218.71,1035.46 1218.74,1035.29C1218.74,1035.29 1232.91,954.308 1237.3,943.339C1239.16,938.708 1241.61,937.1 1243.83,936.782C1247.2,936.302 1250.14,938.845 1250.14,938.845C1250.25,938.939 1250.31,939.076 1250.31,939.221L1250.33,939.23C1250.67,939.488 1250.98,939.782 1251.29,940.085C1251.78,940.572 1252.23,941.097 1252.64,941.647C1253.68,943.019 1254.5,944.553 1255.08,946.171C1255.39,947.054 1255.64,947.96 1255.82,948.881L1250.39,1005.52ZM1050.07,844.051C1081.66,863.497 1144.4,887.267 1242.11,860.986L1256.41,848.656C1181.32,849.768 1147.01,810.385 1146.08,809.298C1145.53,808.979 1143.21,807.575 1141.67,805.83C1140.72,804.751 1140.09,803.535 1140.2,802.363C1140.32,801.19 1141.18,799.994 1143.39,799.027C1144.14,798.665 1193.6,774.544 1203.79,769.416C1204.79,768.611 1222.8,754.017 1236.43,745.329C1240.06,743.017 1243.38,741.123 1245.99,740.009C1247.81,739.232 1249.31,738.837 1250.35,738.901C1250.42,738.906 1250.5,738.927 1250.56,738.964C1250.56,738.964 1252.18,739.869 1253.64,741.535C1255.12,743.231 1256.44,745.704 1255.8,748.797C1255.79,748.851 1255.77,748.904 1255.74,748.952C1255.74,748.952 1218.31,811.891 1205.01,824.874C1240.04,835.718 1265.85,832.759 1277.9,830.12L1278.52,829.59L1397.7,708.608L1387.62,714.843C1387.57,714.876 1387.51,714.898 1387.45,714.909L1357.84,720.345C1354.02,721.149 1351.43,720.374 1349.69,719.182C1347.04,717.365 1346.35,714.536 1346.35,714.536C1346.34,714.497 1346.34,714.458 1346.34,714.418L1346.34,700.345C1346.34,700.235 1346.37,700.128 1346.44,700.04C1350.7,694.481 1356.89,695.573 1357.77,695.76C1364.42,694.765 1372.6,693.1 1378.66,686.388C1384.78,679.613 1388.71,667.731 1386.86,646.347C1385.38,629.236 1380.41,619.36 1374.96,613.679C1366.89,605.271 1357.8,606.132 1357.8,606.132L1357.68,606.131C1344.04,604.42 1335.92,611.983 1331.21,619.961C1326.64,627.693 1325.26,635.824 1325.16,636.432C1325.16,644.139 1326.26,652.707 1325.62,658.762C1325.16,663.045 1323.8,666.091 1320.8,666.935C1317.75,667.793 1315.5,666.59 1313.89,664.828C1312.55,663.361 1311.68,661.497 1311.18,660.184C1309.76,664.064 1306.01,667.017 1301.81,669.17C1294.78,672.766 1286.55,674.151 1286.55,674.151C1286.38,674.179 1286.22,674.124 1286.1,674.006C1285.99,673.888 1285.94,673.721 1285.97,673.559C1292.09,643.27 1269.51,618.168 1267.03,615.512C1249.75,621.697 1231.46,617.429 1215.7,610.031C1192.01,598.912 1182.34,572.482 1182.34,572.482L1182.31,571.821C1187.15,565.676 1194.88,563.918 1203.49,564.353C1216.18,564.994 1222.5,578.653 1232.18,581.278C1235.56,582.195 1238.33,582.777 1240.19,582.665C1240.99,582.618 1241.6,582.454 1241.97,582.078C1242.32,581.726 1242.41,581.196 1242.3,580.47C1241.78,576.971 1242.55,571.919 1244.12,566.394C1246.44,558.19 1250.48,548.928 1254.42,542.199C1256.13,539.294 1257.81,536.859 1259.33,535.177C1260.39,534.004 1261.38,533.191 1262.24,532.806C1263.12,532.412 1264.46,532.406 1266.14,532.755C1268.49,533.243 1271.55,534.408 1274.92,535.959C1286.47,541.264 1301.79,551.083 1305.05,553.2C1306.1,547.717 1312.9,512.93 1319.25,497.932C1320.31,495.434 1321.36,493.477 1322.37,492.272C1323.13,491.36 1323.89,490.863 1324.61,490.786C1329.23,490.285 1337.4,492.289 1343.94,492.832C1346.48,493.042 1348.77,493.034 1350.48,492.541C1351.52,492.241 1352.35,491.763 1352.84,491.009C1354.99,487.72 1356.28,485.588 1358.51,484.672C1360.01,484.056 1361.95,483.976 1364.9,484.515C1367.07,484.91 1370.67,487.211 1374.65,490.271C1381.57,495.601 1386.87,491.035 1387.04,490.896C1387.21,490.756 1387.46,490.745 1387.64,490.868C1396.68,496.964 1405.69,509.359 1413.85,523.74C1432.82,557.153 1447.28,601.273 1447.28,601.273L1447.28,601.3C1454.12,626.978 1447.13,649.85 1437.47,667.163L1484.15,611.22C1484.2,611.166 1484.26,611.12 1484.32,611.088L1487.38,609.65C1421.49,376.043 1200.51,421.381 1200.51,421.381L1200.45,421.39C1196.95,421.688 1195.35,420.737 1194.66,419.599C1194.22,418.879 1194.12,418.056 1194.18,417.324C1194.26,416.279 1194.65,415.435 1194.65,415.435C1194.68,415.352 1194.75,415.281 1194.82,415.229C1194.82,415.229 1235.75,381.437 1341.6,411.8L1440.65,336.454C1440.79,336.363 1440.97,336.348 1441.12,336.414L1457.44,343.406C1457.52,343.443 1457.6,343.503 1457.65,343.58L1457.76,343.732L1552.24,343.732C1552.37,343.732 1552.49,343.781 1552.58,343.867L1639.37,425.063C1639.43,425.124 1639.48,425.199 1639.5,425.284L1666.63,514.811C1666.65,514.879 1666.65,514.951 1666.65,515.021L1611.09,684.805C1611.17,685.287 1611.24,685.767 1611.32,686.25C1611.33,686.314 1611.33,686.38 1611.31,686.443C1610.91,688.135 1610.53,692.642 1608.97,696.57C1608.85,696.88 1608.72,697.186 1608.58,697.487C1618.49,698.364 1633.78,694.785 1640.77,700.345C1651.4,708.8 1657.76,723.522 1656.94,747.152C1656.94,747.167 1656.48,750.814 1654.77,754.322C1654.47,754.945 1647.69,761.997 1647.31,762.592C1659.52,827.983 1641.13,875.36 1641.13,875.36C1641.1,875.448 1641.04,875.522 1640.97,875.577C1641.33,878.23 1641.49,883.334 1638.32,887.374C1636.39,889.822 1633.25,891.894 1628.17,892.772C1628.1,892.784 1628.02,892.781 1627.95,892.761C1627.95,892.761 1580.23,879.8 1486.31,951.034C1486.29,951.049 1486.27,951.062 1486.24,951.074C1486.24,951.074 1484.29,952.147 1481.96,952.404C1480.35,952.581 1478.56,952.37 1477.07,951.223C1475.52,950.024 1474.27,947.779 1473.96,943.761C1473.95,943.6 1474.01,943.443 1474.14,943.339C1474.14,943.339 1535.62,891.794 1586.38,872.978C1597.3,868.93 1607.72,866.396 1616.94,866.198C1620.83,866.115 1618.65,866.125 1622.06,866.932C1627.26,860.916 1629.64,849.378 1630.46,836.149C1632.41,804.629 1625.4,763.532 1625.4,763.532C1625.39,763.418 1627.4,741.439 1611.64,731.334C1599.49,723.544 1579.97,720.259 1548.65,730.786C1470.13,757.185 1442.77,804.082 1441.01,826.551C1441,826.599 1439.23,833.27 1434.08,832.967C1427.84,832.6 1427.46,825.031 1427.44,824.953C1427.44,824.953 1421.67,780.663 1476.46,742.396L1475.5,742.696C1475.42,742.718 1475.35,742.724 1475.27,742.713L1456.86,739.923L1334.16,847.78C1334.16,847.786 1334.15,847.792 1334.14,847.797C1334.14,847.797 1305.77,870.215 1265.04,890.068C1262.04,892.104 1258.97,894.026 1255.82,895.81C1253.58,897.296 1251.39,898.689 1249.32,899.976C1221.25,917.415 1189.55,922.649 1157.57,919.933C1142.99,920.358 1128.4,918.969 1114.19,915.157L1114.02,915.11C1098.14,912.337 1082.67,907.929 1068.22,901.796C1030.03,885.58 998.995,857.436 985.87,816.039C956.075,722.061 1000.81,618.815 1052.69,541.223C1053.23,540.41 1053.9,539.729 1054.65,539.188C1065.64,522.623 1077.51,506.638 1090.02,491.3C1092.82,487.879 1097.86,487.368 1101.28,490.159C1101.71,490.515 1102.1,490.907 1102.44,491.327L1102.34,491.467C1101.73,492.279 1098.52,496.606 1093.61,503.824C1093.42,504.197 1089.48,511.646 1077.7,528.603C1047.12,578.898 1004.52,696.951 1010.65,775.117C1010.68,775.447 1014.47,821.287 1050.07,844.051ZM1561.99,748.327C1561.93,748.483 1561.95,748.659 1562.05,748.797C1562.05,748.797 1591.55,790.544 1581.89,838.147L1581.97,838.522C1581.97,838.522 1584.02,841.628 1587.33,843.864C1590.69,846.141 1595.33,847.525 1600.44,843.989L1600.59,843.818C1600.59,843.818 1630.23,789.675 1573.51,743.435L1573.36,743.35C1573.36,743.35 1565.04,740.501 1561.99,748.327ZM1188.97,819.146L1227.84,766.892C1218.75,773.613 1188.8,794.878 1160.46,805.257C1170.42,810.931 1179.94,815.495 1188.97,819.146ZM1050.07,655.575C1050.26,655.113 1051.82,651.419 1054.3,651.484C1054.3,651.484 1125.69,630.163 1138.06,568.489C1138.06,568.489 1151.07,551.473 1161,564.659C1161,564.659 1161.13,564.783 1161.48,565.251C1163.98,566.404 1166.54,569.42 1168.7,575.647C1168.74,575.739 1168.74,575.838 1168.72,575.932C1168.72,575.932 1156.45,625.222 1107.48,649.957L1103.66,697.81L1108.08,722.249C1109.9,731.602 1107.54,737.42 1104.31,739.841C1102.03,741.545 1099.31,741.635 1097.12,740.167C1096.46,739.727 1095.81,738.855 1095.2,737.64C1094.35,735.939 1093.55,733.545 1092.83,730.81C1092.21,728.498 1091.65,725.942 1091.14,723.358L1067.8,714.843C1067.54,714.743 1067.4,714.439 1067.52,714.177C1070.77,706.562 1074.02,698.948 1077.27,691.334C1077.38,691.09 1077.66,690.968 1077.91,691.063C1077.98,691.091 1078.05,691.137 1078.1,691.195L1088.1,702.241C1087.99,693.319 1090.29,668.02 1091.36,656.75C1085.23,658.955 1071.79,663.357 1061.87,663.462C1058.96,663.492 1056.36,663.155 1054.3,662.311C1052.16,661.43 1050.6,660.002 1049.88,657.884L1049.89,657.896C1049.82,657.719 1049.41,656.537 1050.06,655.622L1050.07,655.575ZM1160.3,681.78C1158.31,682.724 1156.55,683.38 1155.01,683.809C1150.86,684.961 1148.15,684.502 1146.38,683.574C1143.63,682.122 1143.12,679.487 1143.12,679.487L1143.15,679.175C1144.47,676.394 1150.38,670.453 1158.05,663.52C1175.78,647.481 1202.85,626.002 1202.85,626.002C1203.04,625.849 1203.31,625.859 1203.49,626.024L1218.18,639.389C1218.37,639.563 1218.4,639.855 1218.24,640.061C1215.77,643.324 1208.43,649.124 1200.38,655.002C1201.35,657.702 1202.4,660.373 1203.42,663.054C1203.79,664.014 1204.15,664.974 1204.51,665.937C1204.59,666.129 1204.66,666.322 1204.73,666.514C1204.76,666.602 1204.81,666.702 1204.82,666.799C1204.85,666.984 1204.77,667.165 1204.62,667.277L1189.27,678.418L1209.38,683.441C1209.48,683.391 1209.59,683.374 1209.7,683.396C1209.89,683.435 1210.05,683.585 1210.09,683.777L1210.12,683.924C1210.7,686.526 1211.16,689.157 1211.41,691.812C1211.6,693.803 1211.67,695.806 1211.57,697.804C1211.41,701.19 1210.76,704.583 1209.33,707.676C1208.75,708.942 1208.04,710.15 1207.21,711.272C1206.67,712.001 1206.09,712.692 1205.45,713.342C1202.93,715.935 1199.77,717.794 1196.4,719.08C1194.38,719.854 1192.28,720.431 1190.12,720.683C1188.74,720.845 1187.34,720.871 1185.95,720.737C1184.55,720.602 1183.16,720.301 1181.83,719.838C1180.59,719.405 1179.39,718.832 1178.27,718.146C1175.05,716.184 1172.46,713.344 1170.36,710.249C1168.81,707.971 1167.51,705.531 1166.38,703.021C1165.04,700.026 1163.94,696.924 1163.01,693.776C1162.36,691.588 1161.8,689.375 1161.31,687.145C1160.92,685.367 1160.58,683.578 1160.3,681.78ZM1631.61,535.177C1631.55,535.21 1602.54,541.242 1602.47,541.223L1587.33,531.755L1549,592.463C1549.31,592.498 1549.62,592.539 1549.94,592.584C1550.75,592.704 1551.58,592.857 1552.36,593.14C1552.82,593.309 1553.28,593.526 1553.65,593.864L1553.67,593.892C1575.66,607.8 1589.43,620.773 1598.57,639.982L1640.97,528.603L1631.61,535.177ZM1525.77,592.444L1570.49,522.206C1566.23,513.213 1561.97,504.219 1557.71,495.225L1518.86,460.304L1481.96,514.811C1507.6,555.613 1511.09,585.931 1513.17,593.892C1517.81,591.709 1523.54,592.475 1525.41,592.476C1525.19,592.498 1525.13,592.508 1525.64,592.471C1525.69,592.469 1525.72,592.467 1525.76,592.463C1526.63,592.377 1526.21,592.407 1525.77,592.444L1525.76,592.463L1525.64,592.471C1525.58,592.475 1525.5,592.476 1525.41,592.476C1525.51,592.467 1525.64,592.455 1525.77,592.444ZM1622.06,429.745C1622.06,429.745 1617,453.753 1616.94,453.822C1610.74,460.663 1597.14,477.246 1597.11,477.267C1597.11,477.267 1583.78,488.453 1583.81,488.53L1602.73,522.389C1612.36,520.219 1621.98,518.049 1631.61,515.878L1645.28,500.715L1622.06,429.745ZM1441.16,379.667L1427.44,379.667L1374.96,421.381C1374.96,421.381 1434.54,451.333 1455.67,480.606L1491.62,451.232L1491.62,427.098L1441.16,379.667ZM1568.64,381.783L1564.44,385.295L1552.24,422.645L1536.18,444.516L1570.49,472.068L1583.81,464.121C1589.06,457.586 1594.3,451.051 1599.55,444.516L1603.9,413.885L1568.64,381.783ZM1545.45,365.975L1474.14,365.975L1517.46,429.513C1519.25,427.161 1521.4,425.152 1523.6,423.185C1525.86,421.153 1528.18,419.136 1530.05,416.718C1530.63,415.969 1531.16,415.184 1531.63,414.36C1532.01,413.685 1532.33,412.982 1532.67,412.283C1533.02,411.532 1533.39,410.783 1533.75,410.035C1535,407.463 1536.26,404.897 1537.52,402.33C1539.16,399.002 1540.8,395.678 1542.33,392.299C1544.22,388.102 1545.95,383.745 1546.43,379.128C1546.73,376.179 1546.53,373.197 1546.14,370.267C1545.95,368.856 1545.74,367.447 1545.47,366.049L1545.45,365.975Z" style="fill:rgb(8,44,83);"/>
                </g>
            </g>
        </g>
    </g>
</svg>
